<?xml version="1.0" standalone="no"?>
<!DOCTYPE svg PUBLIC "-//W3C//DTD SVG 20010904//EN"
 "http://www.w3.org/TR/2001/REC-SVG-20010904/DTD/svg10.dtd">
<svg version="1.0" xmlns="http://www.w3.org/2000/svg"
 width="512.000000pt" height="512.000000pt" viewBox="0 0 512.000000 512.000000"
 preserveAspectRatio="xMidYMid meet">
<metadata>
Created by potrace 1.11, written by Peter Selinger 2001-2013
</metadata>
<g transform="translate(0.000000,512.000000) scale(0.100000,-0.100000)"
fill="#000000" stroke="none">
<path d="M4052 4822 c-11 -10 -80 -75 -154 -144 -73 -69 -153 -145 -178 -168
-436 -409 -712 -685 -759 -758 -36 -57 -62 -117 -77 -183 -16 -67 -11 -219 12
-349 24 -132 25 -180 6 -230 -9 -23 -92 -109 -206 -212 l-48 -44 68 -59 c37
-33 86 -76 108 -97 23 -20 59 -52 81 -72 l40 -35 53 57 c130 138 167 174 191
184 29 11 89 12 141 3 207 -35 229 -38 300 -36 67 1 162 17 189 32 9 4 34 16
56 26 104 46 186 123 570 534 39 41 102 109 140 150 39 41 120 128 180 194 61
65 139 150 175 188 36 38 69 75 73 83 10 17 -40 88 -121 174 l-47 51 -395
-396 c-217 -218 -404 -401 -415 -407 -26 -15 -89 -12 -124 6 -51 27 -85 105
-69 161 5 21 132 154 413 435 l405 405 -95 95 -95 95 -408 -408 c-399 -398
-409 -407 -448 -407 -90 0 -154 65 -150 151 l2 50 399 399 c220 220 397 401
395 403 -3 2 -32 24 -65 50 -33 25 -73 57 -89 71 -16 14 -30 26 -31 26 -1 0
-11 -8 -23 -18z"/>
<path d="M428 4500 c-162 -28 -288 -156 -319 -325 -42 -223 57 -579 238 -860
234 -361 471 -501 893 -530 255 -17 265 -19 332 -42 50 -18 111 -76 313 -298
55 -60 118 -130 141 -155 43 -47 48 -52 168 -184 39 -43 82 -91 96 -106 47
-51 205 -224 225 -246 11 -12 58 -64 105 -114 47 -51 92 -101 100 -110 8 -9
58 -64 111 -121 53 -57 109 -117 124 -134 357 -392 733 -753 925 -887 184
-128 268 -136 373 -34 90 88 97 145 32 273 -49 96 -143 220 -295 387 -120 132
-524 528 -656 643 -19 17 -176 161 -264 243 -21 19 -73 67 -116 106 -44 39
-98 89 -120 110 -23 22 -79 73 -124 114 -46 41 -95 86 -110 100 -15 14 -67 61
-115 105 -49 44 -100 91 -114 104 -142 130 -207 188 -221 201 -105 91 -256
242 -270 270 -27 54 -37 110 -45 264 -3 61 -8 125 -10 141 -2 17 -6 55 -10 85
-35 285 -163 498 -411 686 -186 140 -437 259 -634 300 -111 24 -254 29 -342
14z"/>
<path d="M1859 2013 c-9 -10 -40 -40 -70 -67 -30 -27 -108 -99 -174 -160 -66
-61 -125 -115 -131 -121 -89 -80 -338 -319 -481 -463 -370 -372 -528 -589
-524 -720 1 -49 18 -80 77 -138 115 -114 232 -78 524 164 142 117 651 627 817
818 10 12 63 70 119 130 206 223 192 205 171 226 -24 26 -259 311 -270 329
-15 24 -38 24 -58 2z"/>
</g>
</svg>
